<?xml version="1.0" encoding="UTF-8"?> <svg xmlns="http://www.w3.org/2000/svg" id="Layer_1" data-name="Layer 1" viewBox="0 0 468.97 133.53"><defs><style>.cls-1,.cls-6{fill:#004b70;}.cls-1{stroke:#004b70;stroke-miterlimit:10;stroke-width:0.5px;}.cls-2{fill:#4bbcce;}.cls-3{fill:#00acb9;}.cls-4{fill:#b0dce7;}.cls-5{fill:#00809a;}</style></defs><path class="cls-1" d="M181.72,59.19l-3.4,2.61a18.63,18.63,0,0,0-6.76-5.55,19.72,19.72,0,0,0-8.65-1.89,19.13,19.13,0,0,0-9.55,2.48,17.7,17.7,0,0,0-6.81,6.65,18.3,18.3,0,0,0-2.42,9.39A17.64,17.64,0,0,0,149.53,86a18.73,18.73,0,0,0,13.64,5.27,19.16,19.16,0,0,0,15.15-7.09l3.4,2.58a21.6,21.6,0,0,1-8.05,6.34,25.12,25.12,0,0,1-10.76,2.25q-11.31,0-17.84-7.53a22.69,22.69,0,0,1-5.48-15.35,21.37,21.37,0,0,1,6.63-15.93,22.92,22.92,0,0,1,16.63-6.46,24.43,24.43,0,0,1,10.9,2.39A21.16,21.16,0,0,1,181.72,59.19Z" transform="translate(-12.23 -23.13)"></path><path class="cls-1" d="M190.3,51.2h4.31V69.27h21.94V51.2h4.31V94.29h-4.31V73.49H194.61v20.8H190.3Z" transform="translate(-12.23 -23.13)"></path><path class="cls-1" d="M231.37,51.2h24.7v4.22H235.68v13.5H255.9v4.22H235.68V90.07H255.9v4.22H231.37Z" transform="translate(-12.23 -23.13)"></path><path class="cls-1" d="M261.55,94.29l6.17-43.09h.7l17.52,35.36L303.29,51.2H304l6.2,43.09H306L301.7,63.47,286.46,94.29h-1.1L269.94,63.24l-4.23,31.05Z" transform="translate(-12.23 -23.13)"></path><path class="cls-1" d="M318,51.2h4.31V94.29H318Z" transform="translate(-12.23 -23.13)"></path><path class="cls-1" d="M327.76,86.26l3.66-2.19q3.87,7.11,8.94,7.12a8.61,8.61,0,0,0,4.07-1,7.18,7.18,0,0,0,2.9-2.71,7,7,0,0,0,1-3.61,7.31,7.31,0,0,0-1.47-4.25,35.22,35.22,0,0,0-7.38-6.91q-5.39-4.07-6.71-5.89a10.78,10.78,0,0,1-2.28-6.59,10.1,10.1,0,0,1,1.34-5.13,9.59,9.59,0,0,1,3.8-3.64A10.92,10.92,0,0,1,341,50.11a11.35,11.35,0,0,1,5.69,1.51,19.59,19.59,0,0,1,5.61,5.55l-3.51,2.67a16.65,16.65,0,0,0-4.15-4.25,7.14,7.14,0,0,0-3.73-1,5.92,5.92,0,0,0-4.27,1.58A5.17,5.17,0,0,0,334.94,60a6.52,6.52,0,0,0,.59,2.73,10.14,10.14,0,0,0,2.13,2.87c.57.55,2.43,2,5.57,4.31q5.59,4.13,7.68,7.35A11.92,11.92,0,0,1,353,83.77a11,11,0,0,1-3.56,8.15,12,12,0,0,1-8.66,3.46,12.68,12.68,0,0,1-7.12-2.1A19.07,19.07,0,0,1,327.76,86.26Z" transform="translate(-12.23 -23.13)"></path><path class="cls-1" d="M357.82,55.42V51.2h23.61v4.22h-9.61V94.29h-4.39V55.42Z" transform="translate(-12.23 -23.13)"></path><path class="cls-1" d="M387.88,51.2h8.58a52.31,52.31,0,0,1,9.73.58,11.14,11.14,0,0,1,6.24,3.77,10.78,10.78,0,0,1,2.4,7.12,11.55,11.55,0,0,1-1.65,6.19,10.36,10.36,0,0,1-4.73,4,21.81,21.81,0,0,1-8.5,1.39l15.5,20h-5.33l-15.5-20h-2.43v20h-4.31Zm4.31,4.22V70.06l7.42.06A18.36,18.36,0,0,0,406,69.3a6.6,6.6,0,0,0,3.23-2.62,7.3,7.3,0,0,0,1.16-4,7,7,0,0,0-1.17-3.94,6.57,6.57,0,0,0-3.09-2.53,18.63,18.63,0,0,0-6.33-.76Z" transform="translate(-12.23 -23.13)"></path><path class="cls-1" d="M424.09,51.2h24.7v4.22H428.4v13.5h20.21v4.22H428.4V90.07h20.21v4.22H424.09Z" transform="translate(-12.23 -23.13)"></path><path class="cls-1" d="M456.26,51.2H481v4.22h-20.4v13.5h20.22v4.22H460.56V90.07h20.22v4.22H456.26Z" transform="translate(-12.23 -23.13)"></path><path class="cls-2" d="M85.05,147.07a5.8,5.8,0,1,0-8-1.84,5.8,5.8,0,0,0,8,1.84" transform="translate(-12.23 -23.13)"></path><path class="cls-2" d="M96.13,155.19a5.8,5.8,0,1,0-8-1.84,5.8,5.8,0,0,0,8,1.84" transform="translate(-12.23 -23.13)"></path><path class="cls-2" d="M74.05,155.77a5.8,5.8,0,1,0-8-1.84,5.8,5.8,0,0,0,8,1.84" transform="translate(-12.23 -23.13)"></path><path class="cls-3" d="M40.57,67.32A12.76,12.76,0,1,0,27,55.48,12.77,12.77,0,0,0,40.57,67.32" transform="translate(-12.23 -23.13)"></path><path class="cls-3" d="M94.47,48.61A12.76,12.76,0,1,0,80.85,36.78,12.76,12.76,0,0,0,94.47,48.61" transform="translate(-12.23 -23.13)"></path><path class="cls-3" d="M63.18,49.65A12.76,12.76,0,1,0,49.56,37.81,12.76,12.76,0,0,0,63.18,49.65" transform="translate(-12.23 -23.13)"></path><path class="cls-4" d="M53.66,145a9.28,9.28,0,1,0-9.91-8.61A9.28,9.28,0,0,0,53.66,145" transform="translate(-12.23 -23.13)"></path><path class="cls-4" d="M28.7,132a9.28,9.28,0,1,0-9.9-8.6,9.27,9.27,0,0,0,9.9,8.6" transform="translate(-12.23 -23.13)"></path><path class="cls-5" d="M110.06,143.86A11,11,0,1,0,98.3,133.64a11,11,0,0,0,11.76,10.22" transform="translate(-12.23 -23.13)"></path><path class="cls-5" d="M130.36,123a11,11,0,1,0-11.76-10.22A11,11,0,0,0,130.36,123" transform="translate(-12.23 -23.13)"></path><path class="cls-4" d="M27.38,107.06a9.28,9.28,0,1,0-9.9-8.61,9.27,9.27,0,0,0,9.9,8.61" transform="translate(-12.23 -23.13)"></path><path class="cls-5" d="M26.75,85.26a5.8,5.8,0,1,0-7.55-3.2,5.8,5.8,0,0,0,7.55,3.2" transform="translate(-12.23 -23.13)"></path><path class="cls-5" d="M20.21,68.66a5.8,5.8,0,1,0-7.55-3.2,5.81,5.81,0,0,0,7.55,3.2" transform="translate(-12.23 -23.13)"></path><text x="-12.23" y="-23.13"></text><path class="cls-6" d="M156.62,118.67h4.25a10.21,10.21,0,0,1,3.94.61,4.87,4.87,0,0,1,2.17,1.87,5.14,5.14,0,0,1,.8,2.8,5,5,0,0,1-.7,2.61,5.16,5.16,0,0,1-2.06,1.91,8,8,0,0,1,2.59,1.34,5.6,5.6,0,0,1,1.41,1.86,5.54,5.54,0,0,1,.5,2.37,5.83,5.83,0,0,1-1.89,4.39,7.15,7.15,0,0,1-5.09,1.79h-5.92Zm2.11,2.11v6.9H160a9.53,9.53,0,0,0,3.3-.42,3.5,3.5,0,0,0,2.29-3.31,2.85,2.85,0,0,0-1-2.33,5.23,5.23,0,0,0-3.3-.84Zm0,9.07v8.26h2.67a9.52,9.52,0,0,0,3.46-.46,4,4,0,0,0,1.77-1.44,3.78,3.78,0,0,0,.67-2.13,3.7,3.7,0,0,0-.94-2.5,4.86,4.86,0,0,0-2.58-1.47,19.41,19.41,0,0,0-3.83-.26Z" transform="translate(-12.23 -23.13)"></path><path class="cls-6" d="M186.87,134.93l1.73.91a9.72,9.72,0,0,1-2,2.7,7.89,7.89,0,0,1-2.51,1.56,8.89,8.89,0,0,1-3.15.53,7.61,7.61,0,0,1-6.1-2.56,8.64,8.64,0,0,1-2.2-5.77,8.52,8.52,0,0,1,1.86-5.41,7.63,7.63,0,0,1,6.32-3,7.86,7.86,0,0,1,6.51,3.09,8.6,8.6,0,0,1,1.76,5.45H174.78a6.46,6.46,0,0,0,1.78,4.55,5.62,5.62,0,0,0,4.23,1.78,6.8,6.8,0,0,0,2.37-.42,6.15,6.15,0,0,0,2-1.13A9.47,9.47,0,0,0,186.87,134.93Zm0-4.29a6.93,6.93,0,0,0-1.2-2.62,5.55,5.55,0,0,0-2.07-1.58,6.38,6.38,0,0,0-2.72-.6,5.86,5.86,0,0,0-4,1.5,6.9,6.9,0,0,0-1.86,3.3Z" transform="translate(-12.23 -23.13)"></path><path class="cls-6" d="M191.64,124.28h11.71l-9,14.12h8.73v1.82H190.79l9-14.14h-8.17Z" transform="translate(-12.23 -23.13)"></path><path class="cls-6" d="M206.4,117.72a1.69,1.69,0,1,1,0,3.38,1.6,1.6,0,0,1-1.18-.49,1.68,1.68,0,0,1,0-2.39A1.61,1.61,0,0,1,206.4,117.72Zm-1,6.56h2.05v15.94h-2.05Z" transform="translate(-12.23 -23.13)"></path><path class="cls-6" d="M225.11,134.93l1.73.91a9.5,9.5,0,0,1-2,2.7,8,8,0,0,1-2.51,1.56,8.89,8.89,0,0,1-3.15.53,7.61,7.61,0,0,1-6.1-2.56,8.73,8.73,0,0,1-.34-11.18,7.63,7.63,0,0,1,6.32-3,7.86,7.86,0,0,1,6.51,3.09,8.66,8.66,0,0,1,1.76,5.45H213A6.5,6.5,0,0,0,214.8,137a5.66,5.66,0,0,0,4.24,1.78,6.88,6.88,0,0,0,2.37-.42,6.15,6.15,0,0,0,2-1.13A9.23,9.23,0,0,0,225.11,134.93Zm0-4.29a6.78,6.78,0,0,0-1.19-2.62,5.58,5.58,0,0,0-2.08-1.58,6.34,6.34,0,0,0-2.71-.6,5.86,5.86,0,0,0-4,1.5,6.83,6.83,0,0,0-1.87,3.3Z" transform="translate(-12.23 -23.13)"></path><path class="cls-6" d="M231.19,118.13h2.05v9a8.79,8.79,0,0,1,2.74-2.45,6.61,6.61,0,0,1,3.24-.82,5.69,5.69,0,0,1,3.17.91,5.48,5.48,0,0,1,2.05,2.44,13.17,13.17,0,0,1,.65,4.8v8.2H243v-7.6a19.17,19.17,0,0,0-.22-3.68,3.75,3.75,0,0,0-4-3.18,5,5,0,0,0-3.33,1.23,5.77,5.77,0,0,0-1.94,3,20.61,20.61,0,0,0-.3,4.34v5.84h-2.05Z" transform="translate(-12.23 -23.13)"></path><path class="cls-6" d="M249.23,124.28h2.05v7.44a15.65,15.65,0,0,0,.29,3.75,4.16,4.16,0,0,0,1.68,2.32,5.08,5.08,0,0,0,3,.85,5,5,0,0,0,2.91-.83,4.32,4.32,0,0,0,1.65-2.17,15.67,15.67,0,0,0,.31-3.92v-7.44h2.09v7.83a12.4,12.4,0,0,1-.77,5,5.88,5.88,0,0,1-2.31,2.62,7.31,7.31,0,0,1-3.88.94,7.4,7.4,0,0,1-3.89-.94,5.87,5.87,0,0,1-2.33-2.64,13,13,0,0,1-.76-5.09Z" transform="translate(-12.23 -23.13)"></path><path class="cls-6" d="M267.73,124.28h2v2.86a8.63,8.63,0,0,1,2.72-2.45,6.62,6.62,0,0,1,3.25-.82,5.69,5.69,0,0,1,3.17.91,5.39,5.39,0,0,1,2.05,2.45,12.89,12.89,0,0,1,.66,4.79v8.2h-2.05v-7.6a18.9,18.9,0,0,0-.23-3.68,4.08,4.08,0,0,0-1.37-2.38,4.13,4.13,0,0,0-2.64-.8A5,5,0,0,0,272,127a5.77,5.77,0,0,0-1.94,3,21,21,0,0,0-.29,4.34v5.84h-2Z" transform="translate(-12.23 -23.13)"></path><path class="cls-6" d="M299.76,124.28h2.05V137a15,15,0,0,1-.58,4.91,6.36,6.36,0,0,1-2.8,3.38,9.22,9.22,0,0,1-4.79,1.19,10.81,10.81,0,0,1-3.68-.58,7.4,7.4,0,0,1-2.66-1.56,9,9,0,0,1-1.89-2.85h2.22a5.94,5.94,0,0,0,2.35,2.34,7.53,7.53,0,0,0,3.56.76,7.42,7.42,0,0,0,3.55-.78,4.84,4.84,0,0,0,2.06-2,8.78,8.78,0,0,0,.61-3.82v-.82a7.86,7.86,0,0,1-2.83,2.25,8.41,8.41,0,0,1-7.68-.31,7.75,7.75,0,0,1-3-2.94,8,8,0,0,1-1.06-4.06,8.18,8.18,0,0,1,1.1-4.12,8.37,8.37,0,0,1,7.14-4.14,7.7,7.7,0,0,1,3.34.74,9.36,9.36,0,0,1,3,2.44Zm-6.05,1.57a6.46,6.46,0,0,0-3.23.84,6.12,6.12,0,0,0-2.35,2.33,6.33,6.33,0,0,0-.85,3.22,5.8,5.8,0,0,0,1.76,4.33,6.91,6.91,0,0,0,9.1,0,6,6,0,0,0,1.72-4.47,6.48,6.48,0,0,0-.79-3.22,5.72,5.72,0,0,0-2.24-2.23A6.17,6.17,0,0,0,293.71,125.85Z" transform="translate(-12.23 -23.13)"></path><path class="cls-6" d="M319.63,134.93l1.72.91a9.5,9.5,0,0,1-2,2.7,7.89,7.89,0,0,1-2.51,1.56,8.89,8.89,0,0,1-3.15.53,7.61,7.61,0,0,1-6.1-2.56,8.73,8.73,0,0,1-.34-11.18,7.63,7.63,0,0,1,6.32-3,7.86,7.86,0,0,1,6.51,3.09,8.6,8.6,0,0,1,1.76,5.45H307.54a6.5,6.5,0,0,0,1.77,4.55,5.66,5.66,0,0,0,4.24,1.78,6.84,6.84,0,0,0,2.37-.42,6.15,6.15,0,0,0,2-1.13A9.47,9.47,0,0,0,319.63,134.93Zm0-4.29a6.93,6.93,0,0,0-1.2-2.62,5.55,5.55,0,0,0-2.07-1.58,6.42,6.42,0,0,0-2.72-.6,5.86,5.86,0,0,0-4,1.5,6.9,6.9,0,0,0-1.86,3.3Z" transform="translate(-12.23 -23.13)"></path><path class="cls-6" d="M325.7,124.28h2.06v2.86a8.52,8.52,0,0,1,2.72-2.45,6.62,6.62,0,0,1,3.25-.82,5.69,5.69,0,0,1,3.17.91,5.39,5.39,0,0,1,2.05,2.45,12.89,12.89,0,0,1,.66,4.79v8.2h-2.05v-7.6a18.9,18.9,0,0,0-.23-3.68,4.08,4.08,0,0,0-1.37-2.38,4.13,4.13,0,0,0-2.64-.8A5,5,0,0,0,330,127a5.77,5.77,0,0,0-1.94,3,21,21,0,0,0-.29,4.34v5.84H325.7Z" transform="translate(-12.23 -23.13)"></path><path class="cls-6" d="M352.44,140.22V118.13h2.05V127a8.7,8.7,0,0,1,2.88-2.36,8,8,0,0,1,9.27,1.67,8.19,8.19,0,0,1,2.4,6,8.08,8.08,0,0,1-2.42,5.9,7.88,7.88,0,0,1-5.81,2.45,7.53,7.53,0,0,1-3.53-.83,8.34,8.34,0,0,1-2.79-2.51v2.93Zm8.2-1.57a6.15,6.15,0,0,0,5.46-3.21,6.46,6.46,0,0,0,0-6.46,6.25,6.25,0,0,0-2.31-2.39,6.05,6.05,0,0,0-3.11-.86,6.39,6.39,0,0,0-3.19.86,6,6,0,0,0-2.33,2.31,6.54,6.54,0,0,0-.81,3.26,6.37,6.37,0,0,0,1.82,4.63A6,6,0,0,0,360.64,138.65Z" transform="translate(-12.23 -23.13)"></path><path class="cls-6" d="M386.19,134.93l1.73.91a9.72,9.72,0,0,1-2,2.7,7.89,7.89,0,0,1-2.51,1.56,8.85,8.85,0,0,1-3.15.53,7.61,7.61,0,0,1-6.1-2.56,8.64,8.64,0,0,1-2.2-5.77,8.47,8.47,0,0,1,1.87-5.41,7.61,7.61,0,0,1,6.31-3,7.86,7.86,0,0,1,6.51,3.09,8.6,8.6,0,0,1,1.76,5.45H374.1a6.46,6.46,0,0,0,1.78,4.55,5.63,5.63,0,0,0,4.24,1.78,6.79,6.79,0,0,0,2.36-.42,6.15,6.15,0,0,0,2-1.13A9.47,9.47,0,0,0,386.19,134.93Zm0-4.29A6.78,6.78,0,0,0,385,128a5.55,5.55,0,0,0-2.07-1.58,6.38,6.38,0,0,0-2.72-.6,5.86,5.86,0,0,0-4,1.5,6.9,6.9,0,0,0-1.86,3.3Z" transform="translate(-12.23 -23.13)"></path><path class="cls-6" d="M390.11,124.28h2.11l4.89,11.58,5.08-11.58h.38l5.12,11.58,5-11.58h2.14l-6.93,15.94h-.38l-5.09-11.41-5.1,11.41h-.38Z" transform="translate(-12.23 -23.13)"></path><path class="cls-6" d="M417.91,117.72a1.69,1.69,0,1,1,0,3.38,1.6,1.6,0,0,1-1.18-.49,1.68,1.68,0,0,1,0-2.39A1.61,1.61,0,0,1,417.91,117.72Zm-1,6.56h2.05v15.94h-2.05Z" transform="translate(-12.23 -23.13)"></path><path class="cls-6" d="M422.43,124.28h2.09v2.33a7.54,7.54,0,0,1,2-2.06,3.93,3.93,0,0,1,2.17-.68,3.77,3.77,0,0,1,1.82.54l-1.07,1.73a3,3,0,0,0-1.09-.28,3,3,0,0,0-2,.85,5.41,5.41,0,0,0-1.45,2.61,25.41,25.41,0,0,0-.38,5.51v5.39h-2.09Z" transform="translate(-12.23 -23.13)"></path><path class="cls-6" d="M432.21,118.13h2.05v12.58l7.39-6.43h3l-8.76,7.61,9.27,8.33h-2.89l-8-7.18v7.18h-2.05Z" transform="translate(-12.23 -23.13)"></path><path class="cls-6" d="M460.71,134.93l1.72.91a9.5,9.5,0,0,1-2,2.7A7.89,7.89,0,0,1,458,140.1a8.89,8.89,0,0,1-3.15.53,7.61,7.61,0,0,1-6.1-2.56,8.73,8.73,0,0,1-.34-11.18,7.63,7.63,0,0,1,6.32-3A7.86,7.86,0,0,1,461.2,127a8.66,8.66,0,0,1,1.76,5.45H448.62a6.5,6.5,0,0,0,1.77,4.55,5.66,5.66,0,0,0,4.24,1.78,6.88,6.88,0,0,0,2.37-.42,6.15,6.15,0,0,0,2-1.13A9.47,9.47,0,0,0,460.71,134.93Zm0-4.29a6.93,6.93,0,0,0-1.2-2.62,5.58,5.58,0,0,0-2.08-1.58,6.34,6.34,0,0,0-2.71-.6,5.86,5.86,0,0,0-4,1.5,6.9,6.9,0,0,0-1.86,3.3Z" transform="translate(-12.23 -23.13)"></path><path class="cls-6" d="M466.78,124.28h2.05v2.86a8.55,8.55,0,0,1,2.73-2.45,6.59,6.59,0,0,1,3.25-.82,5.69,5.69,0,0,1,3.17.91,5.45,5.45,0,0,1,2,2.45,13.15,13.15,0,0,1,.65,4.79v8.2h-2.05v-7.6a19.17,19.17,0,0,0-.22-3.68,4.08,4.08,0,0,0-1.37-2.38,4.15,4.15,0,0,0-2.64-.8,5,5,0,0,0-3.33,1.23,5.77,5.77,0,0,0-1.94,3,20.74,20.74,0,0,0-.3,4.34v5.84h-2.05Z" transform="translate(-12.23 -23.13)"></path></svg> 